<?xml version="1.0" encoding="utf-8"?>
<!-- Generator: Adobe Illustrator 15.0.2, SVG Export Plug-In . SVG Version: 6.00 Build 0)  -->
<!DOCTYPE svg PUBLIC "-//W3C//DTD SVG 1.1//EN" "http://www.w3.org/Graphics/SVG/1.1/DTD/svg11.dtd">
<svg version="1.1" id="Calque_1" xmlns="http://www.w3.org/2000/svg" xmlns:xlink="http://www.w3.org/1999/xlink" x="0px" y="0px"
	 width="10px" height="10px" viewBox="0 0 10 10" enable-background="new 0 0 10 10" xml:space="preserve">
<g>
	<path fill="#999999" d="M5.413,6.047c0.053,0.175,0.081,0.352,0.085,0.534c0.006,0.181-0.014,0.358-0.055,0.534
		C5.402,7.289,5.339,7.457,5.25,7.618C5.162,7.78,5.05,7.927,4.917,8.06L3.552,9.424c-0.197,0.198-0.421,0.345-0.67,0.44
		C2.631,9.96,2.374,10.006,2.11,10C1.845,9.993,1.585,9.938,1.33,9.834c-0.256-0.104-0.488-0.262-0.697-0.47
		C0.426,9.158,0.27,8.926,0.167,8.671C0.062,8.415,0.006,8.155,0,7.892c-0.006-0.266,0.04-0.522,0.135-0.772s0.242-0.475,0.44-0.672
		L1.94,5.083C2.212,4.81,2.526,4.632,2.883,4.549c0.356-0.083,0.713-0.069,1.07,0.037l-2.619,2.62
		C1.238,7.303,1.168,7.411,1.125,7.532C1.081,7.655,1.061,7.781,1.061,7.91c0.002,0.129,0.028,0.256,0.081,0.382
		c0.053,0.124,0.128,0.235,0.227,0.335c0.102,0.103,0.214,0.179,0.339,0.23c0.125,0.053,0.253,0.08,0.384,0.085
		c0.13,0.002,0.255-0.02,0.377-0.064c0.12-0.046,0.228-0.116,0.324-0.212L5.413,6.047L5.413,6.047L5.413,6.047z M6.441,0.582
		C6.64,0.385,6.863,0.238,7.116,0.14C7.366,0.043,7.625-0.004,7.89,0c0.267,0.004,0.528,0.059,0.783,0.164
		c0.256,0.104,0.487,0.26,0.692,0.465c0.209,0.21,0.367,0.442,0.472,0.698C9.941,1.583,9.996,1.843,10,2.109
		c0.004,0.265-0.042,0.523-0.139,0.776C9.764,3.136,9.615,3.36,9.418,3.558L8.059,4.917C7.926,5.051,7.777,5.163,7.616,5.25
		C7.454,5.341,7.285,5.406,7.11,5.449c-0.176,0.04-0.354,0.06-0.535,0.056C6.394,5.5,6.214,5.471,6.041,5.419l2.619-2.62
		c0.097-0.095,0.166-0.204,0.21-0.325c0.046-0.12,0.066-0.246,0.064-0.376C8.932,1.967,8.904,1.84,8.851,1.715
		C8.8,1.59,8.722,1.478,8.62,1.375C8.522,1.276,8.41,1.201,8.284,1.148C8.16,1.097,8.034,1.07,7.903,1.068
		c-0.129-0.002-0.255,0.02-0.376,0.063C7.405,1.175,7.295,1.245,7.2,1.34l-2.62,2.619C4.474,3.602,4.462,3.243,4.547,2.885
		c0.086-0.36,0.264-0.674,0.533-0.944L6.441,0.582L6.441,0.582L6.441,0.582z"/>
	<path fill="#4785BA" d="M2.633,7.373C2.572,7.312,2.525,7.24,2.493,7.162C2.46,7.084,2.445,7.003,2.445,6.924
		c0-0.082,0.015-0.162,0.043-0.236c0.029-0.075,0.074-0.144,0.134-0.205l3.861-3.862C6.61,2.496,6.759,2.435,6.931,2.439
		c0.17,0.002,0.318,0.065,0.444,0.191C7.506,2.76,7.569,2.91,7.568,3.077C7.567,3.243,7.504,3.389,7.379,3.515L3.517,7.376
		C3.395,7.499,3.249,7.561,3.082,7.563C2.913,7.567,2.763,7.503,2.633,7.373z"/>
</g>
</svg>
