<?xml version="1.0" encoding="utf-8"?>
<!-- Generator: Adobe Illustrator 15.0.2, SVG Export Plug-In . SVG Version: 6.00 Build 0)  -->
<!DOCTYPE svg PUBLIC "-//W3C//DTD SVG 1.1//EN" "http://www.w3.org/Graphics/SVG/1.1/DTD/svg11.dtd">
<svg version="1.1" id="Calque_1" xmlns="http://www.w3.org/2000/svg" xmlns:xlink="http://www.w3.org/1999/xlink" x="0px" y="0px"
	 width="50px" height="50px" viewBox="0 0 50 50" enable-background="new 0 0 50 50" xml:space="preserve">
<g id="photo-library">
	<path fill="#00CC00" d="M43,33.182V10.273C43,8.472,41.529,7,39.728,7H16.819c-1.799,0-3.275,1.473-3.275,3.273v22.909
		c0,1.803,1.474,3.275,3.275,3.275h22.908C41.529,36.458,43,34.984,43,33.182z M22.544,24.183l4.094,4.91l5.727-7.366l7.362,9.821
		H16.819L22.544,24.183z M7,13.544v26.185C7,41.527,8.473,43,10.273,43h26.185v-3.271H10.273V13.544H7L7,13.544z"/>
</g>
</svg>
