<?xml version="1.0" encoding="utf-8"?>
<!-- Generator: Adobe Illustrator 15.0.2, SVG Export Plug-In . SVG Version: 6.00 Build 0)  -->
<!DOCTYPE svg PUBLIC "-//W3C//DTD SVG 1.1//EN" "http://www.w3.org/Graphics/SVG/1.1/DTD/svg11.dtd">
<svg version="1.1" id="Calque_1" xmlns="http://www.w3.org/2000/svg" xmlns:xlink="http://www.w3.org/1999/xlink" x="0px" y="0px"
	 width="50px" height="50px" viewBox="0 0 50 50" enable-background="new 0 0 50 50" xml:space="preserve">
<g id="drive-form">
	<path fill="#00CC00" d="M39,7H11c-2.199,0-4,1.8-4,4v28c0,2.199,1.8,4,4,4h28c2.199,0,4-1.801,4-4V11C43,8.8,41.199,7,39,7z M19,35
		h-4v-4h4V35z M19,27.002h-4V23h4V27.002z M19,19h-4v-4h4V19z M34.998,35h-14v-4h14V35z M34.998,27.002h-14V23h14V27.002z
		 M34.998,19h-14v-4h14V19z"/>
</g>
</svg>
