<?xml version="1.0" encoding="utf-8"?>
<!-- Generator: Adobe Illustrator 15.0.2, SVG Export Plug-In . SVG Version: 6.00 Build 0)  -->
<!DOCTYPE svg PUBLIC "-//W3C//DTD SVG 1.1//EN" "http://www.w3.org/Graphics/SVG/1.1/DTD/svg11.dtd">
<svg version="1.1" id="Calque_1" xmlns="http://www.w3.org/2000/svg" xmlns:xlink="http://www.w3.org/1999/xlink" x="0px" y="0px"
	 width="21px" height="21px" viewBox="21 0 21 21" enable-background="new 21 0 21 21" xml:space="preserve">
<path opacity="0.5" enable-background="new    " d="M40.877,1.135C40.953,1.327,41,1.533,41,1.75v16.501
	C41,19.213,40.182,20,39.184,20H22.818c-0.246,0-0.481-0.049-0.695-0.135c0.26,0.66,0.92,1.135,1.695,1.135h16.363
	c1,0,1.818-0.787,1.818-1.749V2.75C42,2.024,41.534,1.399,40.877,1.135z"/>
<path fill="#FFFFFF" d="M40.877,1.135C40.616,0.475,39.956,0,39.184,0H22.818C21.818,0,21,0.788,21,1.75v16.501
	c0,0.726,0.465,1.351,1.123,1.614C22.337,19.951,22.572,20,22.818,20h16.363c1,0,1.818-0.787,1.818-1.749V1.75
	C41,1.533,40.953,1.327,40.877,1.135z M22.637,14.376l4.182-5.938l3.272,3.625l4.183-6.937l5.093,9.25H22.637z"/>
</svg>
