<?xml version="1.0" encoding="utf-8"?>
<!-- Generator: Adobe Illustrator 15.0.2, SVG Export Plug-In . SVG Version: 6.00 Build 0)  -->
<!DOCTYPE svg PUBLIC "-//W3C//DTD SVG 1.1//EN" "http://www.w3.org/Graphics/SVG/1.1/DTD/svg11.dtd">
<svg version="1.1" id="Calque_1" xmlns="http://www.w3.org/2000/svg" xmlns:xlink="http://www.w3.org/1999/xlink" x="0px" y="0px"
	 width="512px" height="512px" viewBox="0 0 512 512" enable-background="new 0 0 512 512" xml:space="preserve">
<path fill="#999999" d="M512.002,232.754l-19.792-83.086l-72.726,7.784c-7.349-12.37-15.853-23.658-25.412-33.76l26.88-65.202
	l-72.807-44.844l-45.407,56.388c-15.75-4.124-31.959-6.186-48.348-6.29L225.938,0.452l-82.674,22.162l9.716,70.046
	c-11.416,7.061-21.88,15.103-31.208,23.916l-62.78-25.824l-44.87,72.729l54.018,43.605c-3.942,14.845-6.262,30.256-6.596,45.771
	L0,278.37l19.844,83.192l68.682-7.372c7.938,13.762,17.242,26.235,28.012,37.214L91.23,452.688l72.778,44.792l43.658-54.068
	c14.818,3.658,29.896,5.721,45.306,5.876l25.846,62.265l83.193-19.792l-7.525-70.664c12.859-7.834,24.714-16.803,34.92-26.906
	l63.758,26.235l44.842-72.779l-56.41-45.46c3.398-13.864,5.307-28.09,5.513-42.418L512.002,232.754z M310.624,361.872
	c-58.682,30.046-130.764,6.956-160.762-51.802c-30.126-58.758-6.932-130.66,51.75-160.814
	c58.708-30.05,130.712-6.804,160.762,51.853C392.498,259.814,369.356,331.714,310.624,361.872"/>
</svg>
