<?xml version="1.0" encoding="utf-8"?>
<!-- Generator: Adobe Illustrator 15.0.2, SVG Export Plug-In . SVG Version: 6.00 Build 0)  -->
<!DOCTYPE svg PUBLIC "-//W3C//DTD SVG 1.1//EN" "http://www.w3.org/Graphics/SVG/1.1/DTD/svg11.dtd">
<svg version="1.1" id="Calque_1" xmlns="http://www.w3.org/2000/svg" xmlns:xlink="http://www.w3.org/1999/xlink" x="0px" y="0px"
	 width="30px" height="30px" viewBox="0 0 30 30" enable-background="new 0 0 30 30" xml:space="preserve">
<g id="refresh">
	<path d="M19.701,11.301C18.649,10.175,17.15,9.5,15.5,9.5c-3.301,0-6,2.7-6,6c0,3.298,2.7,6,6,6c2.775,0,5.1-1.951,5.774-4.5
		h-1.573c-0.6,1.728-2.25,3.001-4.201,3.001c-2.476,0-4.5-2.024-4.5-4.501c0-2.476,2.024-4.5,4.5-4.5
		c1.273,0,2.326,0.524,3.149,1.351l-2.398,2.399H21.5V9.5L19.701,11.301z"/>
</g>
</svg>
