<?xml version="1.0" encoding="utf-8"?>
<!-- Generator: Adobe Illustrator 15.0.2, SVG Export Plug-In . SVG Version: 6.00 Build 0)  -->
<!DOCTYPE svg PUBLIC "-//W3C//DTD SVG 1.1//EN" "http://www.w3.org/Graphics/SVG/1.1/DTD/svg11.dtd">
<svg version="1.1" id="Calque_1" xmlns="http://www.w3.org/2000/svg" xmlns:xlink="http://www.w3.org/1999/xlink" x="0px" y="0px"
	 width="26px" height="24px" viewBox="242.002 247 26 24" enable-background="new 242.002 247 26 24" xml:space="preserve">
<g id="news">
	<path fill="#039CD1" d="M265.788,249.266L263.712,247l-2.214,2.268L259.291,247l-2.209,2.268L255.001,247l-2.21,2.268l-2.08-2.268
		l-2.21,2.268l-2.21-2.268l-2.08,2.268L242.002,247v21.334c0,1.465,1.169,2.666,2.6,2.666h20.797c1.432,0,2.604-1.201,2.604-2.666
		V247L265.788,249.266z M255.001,268.334h-10.399V259h10.399V268.334z M265.398,268.334h-9.096V267h9.096V268.334L265.398,268.334z
		 M265.398,265.666h-9.096v-1.333h9.096V265.666L265.398,265.666z M265.398,262.999h-9.096v-1.334h9.096V262.999L265.398,262.999z
		 M265.398,260.334h-9.096V259h9.096V260.334L265.398,260.334z M265.398,257.666h-20.797v-4h20.797V257.666L265.398,257.666z"/>
</g>
</svg>
