<?xml version="1.0" encoding="utf-8"?>
<!-- Generator: Adobe Illustrator 15.0.2, SVG Export Plug-In . SVG Version: 6.00 Build 0)  -->
<!DOCTYPE svg PUBLIC "-//W3C//DTD SVG 1.1//EN" "http://www.w3.org/Graphics/SVG/1.1/DTD/svg11.dtd">
<svg version="1.1" id="Calque_1" xmlns="http://www.w3.org/2000/svg" xmlns:xlink="http://www.w3.org/1999/xlink" x="0px" y="0px"
	 width="24px" height="24px" viewBox="243 247 24 24" enable-background="new 243 247 24 24" xml:space="preserve">
<g id="drive-form">
	<path fill="#039CD1" d="M264.334,247h-18.667c-1.466,0-2.667,1.2-2.667,2.667v18.667c0,1.466,1.2,2.666,2.667,2.666h18.667
		c1.466,0,2.666-1.2,2.666-2.666v-18.667C267,248.2,265.8,247,264.334,247z M251,265.666h-2.667V263H251V265.666z M251,260.334
		h-2.667v-2.668H251V260.334z M251,255h-2.667v-2.667H251V255z M261.666,265.666h-9.333V263h9.333V265.666z M261.666,260.334h-9.333
		v-2.668h9.333V260.334z M261.666,255h-9.333v-2.667h9.333V255z"/>
</g>
</svg>
