<?xml version="1.0" encoding="utf-8"?>
<!-- Generator: Adobe Illustrator 15.0.2, SVG Export Plug-In . SVG Version: 6.00 Build 0)  -->
<!DOCTYPE svg PUBLIC "-//W3C//DTD SVG 1.1//EN" "http://www.w3.org/Graphics/SVG/1.1/DTD/svg11.dtd">
<svg version="1.1" id="Calque_1" xmlns="http://www.w3.org/2000/svg" xmlns:xlink="http://www.w3.org/1999/xlink" x="0px" y="0px"
	 width="16px" height="16px" viewBox="245.406 250.594 16 16" enable-background="new 245.406 250.594 16 16" xml:space="preserve">
<g>
	<g>
		<g>
			<g>
				<path fill="#FC8521" d="M248.99,263.01c-0.821-0.821-2.147-0.821-2.969,0c-0.821,0.821-0.821,2.148,0,2.969
					c0.819,0.819,2.148,0.821,2.969,0C249.812,265.158,249.809,263.829,248.99,263.01z"/>
			</g>
		</g>
		<g>
			<path fill="#FC8521" d="M259.668,266.231c-0.959,0-1.737-0.778-1.737-1.737c0-5.749-4.677-10.426-10.425-10.426
				c-0.959,0-1.737-0.778-1.737-1.737s0.778-1.737,1.737-1.737c3.713,0,7.204,1.446,9.829,4.071
				c2.626,2.626,4.071,6.116,4.071,9.829C261.406,265.453,260.628,266.231,259.668,266.231z"/>
		</g>
		<g>
			<path fill="#FC8521" d="M253.878,266.231c-0.959,0-1.737-0.778-1.737-1.737c0-2.556-2.079-4.635-4.635-4.635
				c-0.959,0-1.737-0.777-1.737-1.737s0.778-1.737,1.737-1.737c4.472,0,8.109,3.638,8.109,8.109
				C255.615,265.453,254.837,266.231,253.878,266.231z"/>
		</g>
	</g>
</g>
</svg>
