<?xml version="1.0" encoding="utf-8"?>
<!-- Generator: Adobe Illustrator 15.0.2, SVG Export Plug-In . SVG Version: 6.00 Build 0)  -->
<!DOCTYPE svg PUBLIC "-//W3C//DTD SVG 1.1//EN" "http://www.w3.org/Graphics/SVG/1.1/DTD/svg11.dtd">
<svg version="1.1" id="Calque_1" xmlns="http://www.w3.org/2000/svg" xmlns:xlink="http://www.w3.org/1999/xlink" x="0px" y="0px"
	 width="20px" height="20px" viewBox="0 0 20 20" enable-background="new 0 0 20 20" xml:space="preserve">
<g id="settings">
	<path fill="#F4F4F4" d="M15.986,10.848c0-0.24,0.082-0.482,0.082-0.805c0-0.323,0-0.564-0.082-0.807l1.713-1.365
		c0.166-0.161,0.166-0.322,0.084-0.484l-1.634-2.813c-0.081-0.081-0.243-0.161-0.487-0.081l-2.043,0.805
		c-0.408-0.321-0.896-0.563-1.387-0.805l-0.326-2.091C11.99,2.161,11.742,2,11.58,2H8.314C8.15,2,7.906,2.161,7.906,2.322
		L7.58,4.492C7.09,4.654,6.682,4.975,6.193,5.297L4.234,4.492c-0.246-0.08-0.408,0-0.57,0.162L2.031,7.468
		c-0.082,0.08,0,0.321,0.164,0.482L3.91,9.236c0,0.242-0.084,0.482-0.084,0.806c0,0.321,0,0.563,0.084,0.804L2.195,12.21
		c-0.164,0.162-0.164,0.323-0.082,0.485l1.633,2.811c0.082,0.083,0.244,0.166,0.49,0.083l2.041-0.807
		c0.406,0.323,0.896,0.565,1.387,0.807L7.99,17.68c0,0.162,0.162,0.32,0.407,0.32h3.267c0.16,0,0.406-0.158,0.406-0.32l0.328-2.091
		c0.487-0.239,0.979-0.483,1.387-0.807l2.039,0.807c0.164,0.083,0.407,0,0.491-0.161l1.63-2.814c0.084-0.158,0.084-0.402-0.078-0.48
		L15.986,10.848z M9.945,12.855c-1.55,0-2.854-1.285-2.854-2.813c0-1.529,1.306-2.814,2.854-2.814c1.553,0,2.857,1.287,2.857,2.814
		C12.803,11.57,11.498,12.855,9.945,12.855z"/>
</g>
</svg>
