<?xml version="1.0" encoding="utf-8"?>
<!-- Generator: Adobe Illustrator 15.0.2, SVG Export Plug-In . SVG Version: 6.00 Build 0)  -->
<!DOCTYPE svg PUBLIC "-//W3C//DTD SVG 1.1//EN" "http://www.w3.org/Graphics/SVG/1.1/DTD/svg11.dtd">
<svg version="1.1" id="Calque_1" xmlns="http://www.w3.org/2000/svg" xmlns:xlink="http://www.w3.org/1999/xlink" x="0px" y="0px"
	 width="20px" height="20px" viewBox="0 0 20 20" enable-background="new 0 0 20 20" xml:space="preserve">
<g id="settings-power">
	<path fill="#F4F4F4" d="M10.708,4H9.293v7.06h1.414V4z M13.249,5.696l-0.992,0.986c1.133,0.778,1.979,2.119,1.979,3.672
		c0,2.326-1.908,4.234-4.234,4.234c-2.33,0-4.234-1.908-4.234-4.234c0-1.553,0.846-2.894,2.045-3.602L6.752,5.696
		c-1.411,1.057-2.398,2.75-2.398,4.658C4.354,13.459,6.895,16,10,16c3.104,0,5.645-2.541,5.645-5.646
		C15.644,8.448,14.657,6.752,13.249,5.696z"/>
</g>
</svg>
