<?xml version="1.0" encoding="utf-8"?>
<!-- Generator: Adobe Illustrator 15.0.2, SVG Export Plug-In . SVG Version: 6.00 Build 0)  -->
<!DOCTYPE svg PUBLIC "-//W3C//DTD SVG 1.1//EN" "http://www.w3.org/Graphics/SVG/1.1/DTD/svg11.dtd">
<svg version="1.1" id="Calque_1" xmlns="http://www.w3.org/2000/svg" xmlns:xlink="http://www.w3.org/1999/xlink" x="0px" y="0px"
	 width="60px" height="30px" viewBox="0 0 60 30" enable-background="new 0 0 60 30" xml:space="preserve">
<g>
	<path fill="#2D2D2D" d="M15.662,16.677c0.084,0.279,0.129,0.563,0.136,0.854c0.007,0.29-0.021,0.575-0.087,0.854
		c-0.065,0.279-0.169,0.548-0.31,0.806c-0.143,0.258-0.32,0.494-0.534,0.708l-2.183,2.183c-0.316,0.315-0.674,0.551-1.074,0.704
		c-0.399,0.153-0.811,0.226-1.234,0.216c-0.423-0.009-0.839-0.098-1.248-0.265c-0.409-0.168-0.781-0.419-1.116-0.753
		c-0.33-0.33-0.579-0.7-0.746-1.109c-0.167-0.408-0.255-0.825-0.265-1.248c-0.009-0.423,0.063-0.834,0.216-1.233
		c0.153-0.4,0.388-0.758,0.704-1.074l2.183-2.183c0.437-0.437,0.94-0.722,1.51-0.854c0.569-0.132,1.14-0.113,1.711,0.059l-4.19,4.19
		c-0.153,0.153-0.265,0.328-0.334,0.523c-0.07,0.195-0.104,0.396-0.101,0.603c0.002,0.207,0.045,0.411,0.129,0.61
		c0.083,0.2,0.205,0.379,0.363,0.537c0.163,0.163,0.344,0.286,0.543,0.369c0.2,0.084,0.405,0.128,0.614,0.133
		c0.209,0.005,0.41-0.029,0.603-0.101c0.193-0.072,0.366-0.186,0.52-0.339L15.662,16.677L15.662,16.677L15.662,16.677z
		 M17.308,7.933c0.316-0.316,0.676-0.552,1.077-0.708c0.402-0.156,0.816-0.23,1.241-0.224c0.426,0.007,0.843,0.094,1.252,0.262
		s0.778,0.416,1.108,0.746c0.335,0.334,0.586,0.707,0.753,1.115c0.168,0.41,0.255,0.827,0.262,1.252s-0.067,0.839-0.224,1.241
		c-0.155,0.402-0.392,0.761-0.707,1.077l-2.176,2.175c-0.214,0.214-0.45,0.392-0.708,0.534s-0.527,0.246-0.809,0.313
		s-0.567,0.098-0.857,0.091c-0.291-0.007-0.575-0.053-0.854-0.136l4.19-4.191c0.153-0.153,0.267-0.326,0.339-0.52
		c0.071-0.192,0.105-0.394,0.101-0.603c-0.005-0.209-0.049-0.414-0.133-0.614c-0.083-0.2-0.206-0.381-0.369-0.544
		c-0.158-0.158-0.337-0.279-0.537-0.363c-0.199-0.083-0.403-0.126-0.61-0.129c-0.206-0.002-0.407,0.031-0.603,0.101
		s-0.37,0.181-0.523,0.334l-4.19,4.191c-0.172-0.572-0.189-1.145-0.052-1.719c0.137-0.574,0.422-1.077,0.854-1.51L17.308,7.933
		L17.308,7.933L17.308,7.933z"/>
	<path fill="#2D2D2D" d="M11.214,18.797c-0.098-0.098-0.172-0.21-0.224-0.335c-0.051-0.126-0.077-0.253-0.077-0.384
		c0-0.13,0.023-0.256,0.07-0.376c0.047-0.121,0.119-0.23,0.216-0.328l6.178-6.178c0.199-0.2,0.437-0.297,0.711-0.293
		c0.274,0.005,0.511,0.107,0.711,0.307c0.209,0.209,0.313,0.447,0.311,0.714c-0.003,0.268-0.104,0.501-0.304,0.701l-6.178,6.178
		c-0.195,0.195-0.427,0.295-0.697,0.3C11.662,19.107,11.423,19.006,11.214,18.797z"/>
</g>
<g>
	<path fill="#9595A4" d="M45.661,16.677c0.084,0.279,0.129,0.563,0.136,0.854c0.007,0.29-0.021,0.575-0.087,0.854
		c-0.065,0.279-0.169,0.548-0.31,0.806c-0.143,0.258-0.32,0.494-0.534,0.708l-2.183,2.183c-0.315,0.315-0.674,0.551-1.073,0.704
		c-0.4,0.153-0.812,0.226-1.234,0.216c-0.424-0.009-0.839-0.098-1.248-0.265c-0.409-0.168-0.781-0.419-1.115-0.753
		c-0.33-0.33-0.579-0.7-0.746-1.109c-0.168-0.408-0.256-0.825-0.266-1.248s0.063-0.834,0.217-1.233
		c0.152-0.4,0.388-0.758,0.703-1.074l2.184-2.183c0.437-0.437,0.939-0.722,1.51-0.854c0.568-0.132,1.139-0.113,1.711,0.059
		l-4.19,4.19c-0.153,0.153-0.265,0.328-0.335,0.523c-0.069,0.195-0.104,0.396-0.101,0.603c0.003,0.207,0.046,0.411,0.129,0.61
		c0.083,0.2,0.204,0.379,0.362,0.537c0.163,0.163,0.344,0.286,0.544,0.369c0.2,0.084,0.405,0.128,0.614,0.133
		s0.41-0.029,0.603-0.101c0.192-0.072,0.366-0.186,0.52-0.339L45.661,16.677L45.661,16.677L45.661,16.677z M47.307,7.933
		c0.316-0.316,0.676-0.552,1.077-0.708c0.402-0.156,0.816-0.23,1.241-0.224c0.426,0.007,0.843,0.094,1.252,0.262
		s0.778,0.416,1.108,0.746c0.335,0.334,0.586,0.707,0.753,1.115c0.168,0.41,0.255,0.827,0.262,1.252s-0.067,0.839-0.224,1.241
		c-0.155,0.402-0.392,0.761-0.707,1.077l-2.176,2.175c-0.214,0.214-0.45,0.392-0.708,0.534s-0.527,0.246-0.809,0.313
		s-0.567,0.098-0.857,0.091c-0.291-0.007-0.575-0.053-0.854-0.136l4.19-4.191c0.153-0.153,0.267-0.326,0.339-0.52
		c0.071-0.192,0.105-0.394,0.101-0.603c-0.005-0.209-0.049-0.414-0.133-0.614c-0.083-0.2-0.206-0.381-0.369-0.544
		c-0.158-0.158-0.337-0.279-0.537-0.363c-0.199-0.083-0.403-0.126-0.61-0.129c-0.206-0.002-0.407,0.031-0.603,0.101
		s-0.37,0.181-0.523,0.334l-4.19,4.191c-0.172-0.572-0.189-1.145-0.053-1.719c0.138-0.574,0.423-1.077,0.854-1.51L47.307,7.933
		L47.307,7.933L47.307,7.933z"/>
	<path fill="#9595A4" d="M41.213,18.797c-0.098-0.098-0.173-0.21-0.224-0.335c-0.051-0.126-0.076-0.253-0.076-0.384
		c0-0.13,0.023-0.256,0.069-0.376c0.047-0.121,0.118-0.23,0.216-0.328l6.179-6.178c0.199-0.2,0.437-0.297,0.711-0.293
		c0.274,0.005,0.511,0.107,0.711,0.307c0.209,0.209,0.313,0.447,0.311,0.714c-0.003,0.268-0.104,0.501-0.304,0.701l-6.178,6.178
		c-0.195,0.195-0.428,0.295-0.697,0.3C41.661,19.107,41.422,19.006,41.213,18.797z"/>
</g>
</svg>
