<?xml version="1.0" encoding="utf-8"?>
<!-- Generator: Adobe Illustrator 15.0.2, SVG Export Plug-In . SVG Version: 6.00 Build 0)  -->
<!DOCTYPE svg PUBLIC "-//W3C//DTD SVG 1.1//EN" "http://www.w3.org/Graphics/SVG/1.1/DTD/svg11.dtd">
<svg version="1.1" id="Calque_1" xmlns="http://www.w3.org/2000/svg" xmlns:xlink="http://www.w3.org/1999/xlink" x="0px" y="0px"
	 width="60px" height="30px" viewBox="0 0 60 30" enable-background="new 0 0 60 30" xml:space="preserve">
<path opacity="0.25" fill="#2D2D2D" enable-background="new    " d="M6.067,18.45l4.184-5.951L6.38,7h2.427l1.757,2.685
	c0.331,0.511,0.597,0.938,0.798,1.283c0.316-0.475,0.607-0.895,0.873-1.262L14.165,7h2.318l-3.956,5.392l4.258,6.059h-2.384
	l-2.351-3.559l-0.625-0.959L8.418,18.45H6.067z"/>
<path fill="#2D2D2D" d="M17.216,23c0.043-0.41,0.212-0.82,0.507-1.23c0.453-0.617,1.196-1.301,2.231-2.053
	c1.036-0.752,1.65-1.232,1.844-1.449c0.267-0.295,0.398-0.598,0.398-0.906c0-0.344-0.125-0.629-0.377-0.852
	c-0.251-0.224-0.621-0.334-1.11-0.334c-0.475,0-0.828,0.084-1.062,0.254c-0.233,0.166-0.426,0.492-0.577,0.973l-1.628-0.172
	c0.209-0.797,0.569-1.387,1.084-1.764c0.514-0.377,1.252-0.564,2.216-0.564c1.085,0,1.881,0.212,2.387,0.636
	c0.507,0.427,0.761,0.941,0.761,1.554c0,0.604-0.212,1.177-0.636,1.716c-0.323,0.399-1.061,1.017-2.21,1.844
	c-0.598,0.438-1.021,0.785-1.272,1.045h4.161V23H17.216L17.216,23z"/>
<path opacity="0.25" fill="#9595A4" enable-background="new    " d="M36.066,18.45l4.184-5.951L36.379,7h2.426l1.758,2.685
	c0.33,0.511,0.598,0.938,0.797,1.283c0.316-0.475,0.607-0.895,0.873-1.262L44.163,7h2.317l-3.955,5.392l4.258,6.059H44.4
	l-2.354-3.559l-0.625-0.959l-3.007,4.518L36.066,18.45L36.066,18.45z"/>
<path fill="#9595A4" d="M47.215,22.998c0.043-0.408,0.211-0.818,0.506-1.229c0.453-0.617,1.197-1.304,2.232-2.056
	c1.035-0.75,1.65-1.231,1.844-1.448c0.266-0.293,0.398-0.599,0.398-0.906c0-0.344-0.125-0.629-0.377-0.853
	c-0.252-0.223-0.621-0.334-1.111-0.334c-0.475,0-0.828,0.084-1.061,0.254c-0.234,0.168-0.429,0.494-0.578,0.976l-1.627-0.172
	c0.209-0.799,0.566-1.388,1.084-1.765c0.514-0.376,1.252-0.564,2.215-0.564c1.086,0,1.881,0.212,2.387,0.636
	c0.508,0.427,0.762,0.942,0.762,1.554c0,0.604-0.213,1.176-0.637,1.715c-0.322,0.4-1.061,1.018-2.209,1.844
	c-0.598,0.438-1.021,0.787-1.273,1.045h4.162V23h-6.717V22.998z"/>
<rect y="0.097" fill="none" width="30" height="30"/>
<rect x="30" fill="none" width="30" height="30"/>
</svg>
