<?xml version="1.0" encoding="utf-8"?>
<!-- Generator: Adobe Illustrator 15.0.2, SVG Export Plug-In . SVG Version: 6.00 Build 0)  -->
<!DOCTYPE svg PUBLIC "-//W3C//DTD SVG 1.1//EN" "http://www.w3.org/Graphics/SVG/1.1/DTD/svg11.dtd">
<svg version="1.1" id="Calque_1" xmlns="http://www.w3.org/2000/svg" xmlns:xlink="http://www.w3.org/1999/xlink" x="0px" y="0px"
	 width="60px" height="30px" viewBox="0 0 60 30" enable-background="new 0 0 60 30" xml:space="preserve">
<path opacity="0.25" fill="#2D2D2D" enable-background="new    " d="M6.067,23l4.184-5.951L6.38,11.55h2.427l1.757,2.685
	c0.331,0.511,0.597,0.938,0.798,1.283c0.316-0.475,0.607-0.895,0.873-1.262l1.93-2.706h2.318l-3.956,5.392L16.785,23h-2.384
	l-2.351-3.559l-0.625-0.959L8.418,23H6.067z"/>
<path fill="#2D2D2D" d="M17.216,15.097c0.043-0.41,0.212-0.82,0.507-1.23c0.453-0.617,1.196-1.301,2.231-2.053
	c1.036-0.751,1.65-1.233,1.844-1.449c0.267-0.294,0.398-0.598,0.398-0.906c0-0.345-0.125-0.629-0.377-0.852
	c-0.251-0.223-0.621-0.334-1.11-0.334c-0.475,0-0.828,0.084-1.062,0.254C19.414,8.694,19.221,9.02,19.07,9.5l-1.628-0.172
	c0.209-0.798,0.569-1.386,1.084-1.764C19.04,7.188,19.778,7,20.742,7c1.085,0,1.881,0.212,2.387,0.636
	c0.507,0.426,0.761,0.942,0.761,1.553c0,0.604-0.212,1.176-0.636,1.715c-0.323,0.401-1.061,1.017-2.21,1.844
	c-0.598,0.438-1.021,0.785-1.272,1.045h4.161v1.305L17.216,15.097L17.216,15.097z"/>
<path opacity="0.25" fill="#9595A4" enable-background="new    " d="M36.066,23l4.184-5.951l-3.871-5.499h2.426l1.758,2.685
	c0.33,0.511,0.597,0.938,0.797,1.283c0.316-0.475,0.607-0.895,0.873-1.262l1.931-2.706h2.317l-3.955,5.392L46.783,23H44.4
	l-2.353-3.559l-0.625-0.959L38.416,23H36.066z"/>
<path fill="#9595A4" d="M47.215,15.096c0.043-0.409,0.211-0.819,0.506-1.229c0.453-0.617,1.197-1.302,2.232-2.054
	c1.035-0.751,1.65-1.233,1.844-1.449c0.266-0.294,0.398-0.598,0.398-0.906c0-0.345-0.125-0.629-0.377-0.852
	s-0.621-0.334-1.111-0.334c-0.475,0-0.828,0.084-1.061,0.254C49.412,8.694,49.219,9.02,49.068,9.5l-1.627-0.172
	c0.209-0.798,0.567-1.386,1.084-1.764C49.039,7.188,49.777,7,50.74,7c1.086,0,1.881,0.212,2.387,0.636
	c0.508,0.426,0.762,0.942,0.762,1.553c0,0.604-0.213,1.176-0.637,1.715c-0.322,0.401-1.061,1.017-2.209,1.844
	c-0.598,0.438-1.021,0.786-1.273,1.045h4.162v1.305h-6.717V15.096z"/>
<rect y="0.097" fill="none" width="30" height="30"/>
<rect x="30" fill="none" width="30" height="30"/>
</svg>
