<?xml version="1.0" encoding="utf-8"?>
<!-- Generator: Adobe Illustrator 15.0.2, SVG Export Plug-In . SVG Version: 6.00 Build 0)  -->
<!DOCTYPE svg PUBLIC "-//W3C//DTD SVG 1.1//EN" "http://www.w3.org/Graphics/SVG/1.1/DTD/svg11.dtd">
<svg version="1.1" id="Calque_1" xmlns="http://www.w3.org/2000/svg" xmlns:xlink="http://www.w3.org/1999/xlink" x="0px" y="0px"
	 width="60px" height="30px" viewBox="0 0 60 30" enable-background="new 0 0 60 30" xml:space="preserve">
<g>
	<g enable-background="new    ">
		<path fill="#2D2D2D" d="M11.791,7v7.951c0,2.98,1.332,4.254,3.121,4.254c1.968,0,3.26-1.313,3.26-4.254V7h1.75v7.832
			c0,4.113-2.167,5.784-5.069,5.784c-2.743,0-4.811-1.55-4.811-5.725V7H11.791z"/>
	</g>
	<g>
		<rect x="10.057" y="21.575" fill="#2D2D2D" width="9.901" height="1.425"/>
	</g>
</g>
<g>
	<g enable-background="new    ">
		<path fill="#9595A4" d="M41.791,7v7.951c0,2.98,1.331,4.254,3.12,4.254c1.968,0,3.26-1.313,3.26-4.254V7h1.75v7.832
			c0,4.113-2.167,5.784-5.069,5.784c-2.742,0-4.811-1.55-4.811-5.725V7H41.791z"/>
	</g>
	<g>
		<rect x="40.057" y="21.575" fill="#9595A4" width="9.901" height="1.425"/>
	</g>
</g>
</svg>
