<?xml version="1.0" encoding="utf-8"?>
<!-- Generator: Adobe Illustrator 15.0.2, SVG Export Plug-In . SVG Version: 6.00 Build 0)  -->
<!DOCTYPE svg PUBLIC "-//W3C//DTD SVG 1.1//EN" "http://www.w3.org/Graphics/SVG/1.1/DTD/svg11.dtd">
<svg version="1.1" id="Calque_1" xmlns="http://www.w3.org/2000/svg" xmlns:xlink="http://www.w3.org/1999/xlink" x="0px" y="0px"
	 width="60px" height="30px" viewBox="0 0 60 30" enable-background="new 0 0 60 30" xml:space="preserve">
<g>
	<g>
		<path fill="#2D2D2D" d="M21.875,8.125v13.75H8.125V8.125H21.875 M23,7H7v16h16V7L23,7z"/>
	</g>
	<polygon fill="#2D2D2D" points="21.156,18.219 18.156,16.313 15.813,17.25 12.125,14.188 9.156,16.313 9.156,21.031 21.156,21.031 
			"/>
</g>
<g>
	<g>
		<path fill="#9595A4" d="M51.855,8.125v13.75h-13.75V8.125H51.855 M52.98,7h-16v16h16V7L52.98,7z"/>
	</g>
	<polygon fill="#9595A4" points="51.137,18.219 48.137,16.313 45.793,17.25 42.105,14.188 39.137,16.313 39.137,21.031 
		51.137,21.031 	"/>
</g>
</svg>
