<?xml version="1.0" encoding="utf-8"?>
<!-- Generator: Adobe Illustrator 15.0.2, SVG Export Plug-In . SVG Version: 6.00 Build 0)  -->
<!DOCTYPE svg PUBLIC "-//W3C//DTD SVG 1.1//EN" "http://www.w3.org/Graphics/SVG/1.1/DTD/svg11.dtd">
<svg version="1.1" id="Calque_1" xmlns="http://www.w3.org/2000/svg" xmlns:xlink="http://www.w3.org/1999/xlink" x="0px" y="0px"
	 width="60px" height="30px" viewBox="0 0 60 30" enable-background="new 0 0 60 30" xml:space="preserve">
<g>
	<rect x="8.307" y="7" opacity="0.25" fill="#2D2D2D" width="13.387" height="3.66"/>
	<path fill="#2D2D2D" d="M21.694,21.844c0,0.636-0.52,1.156-1.155,1.156H9.463c-0.636,0-1.156-0.521-1.156-1.156v-7.533
		c0-0.636,0.52-1.155,1.156-1.155h11.076c0.636,0,1.155,0.52,1.155,1.155V21.844z"/>
</g>
<g>
	<rect x="38.307" y="7" opacity="0.25" fill="#9595A4" width="13.387" height="3.66"/>
	<path fill="#9595A4" d="M51.693,21.844c0,0.636-0.52,1.156-1.156,1.156H39.461c-0.635,0-1.154-0.521-1.154-1.156v-7.533
		c0-0.636,0.52-1.155,1.154-1.155h11.076c0.637,0,1.156,0.52,1.156,1.155V21.844z"/>
</g>
</svg>
