<?xml version="1.0" encoding="utf-8"?>
<!-- Generator: Adobe Illustrator 15.0.2, SVG Export Plug-In . SVG Version: 6.00 Build 0)  -->
<!DOCTYPE svg PUBLIC "-//W3C//DTD SVG 1.1//EN" "http://www.w3.org/Graphics/SVG/1.1/DTD/svg11.dtd">
<svg version="1.1" id="Calque_1" xmlns="http://www.w3.org/2000/svg" xmlns:xlink="http://www.w3.org/1999/xlink" x="0px" y="0px"
	 width="60px" height="30px" viewBox="0 0 60 30" enable-background="new 0 0 60 30" xml:space="preserve">
<g>
	<path fill="#2D2D2D" d="M19.797,15.802c-0.48-0.644-1.123-1.093-1.914-1.34c0.574-0.269,1.053-0.64,1.432-1.106
		c0.465-0.574,0.701-1.233,0.701-1.961c0-1.458-0.488-2.568-1.449-3.302C17.617,7.368,16.293,7,14.627,7H9.359v16h5.949
		c1.624,0,2.931-0.394,3.884-1.17c0.963-0.784,1.449-1.931,1.449-3.407C20.641,17.432,20.357,16.55,19.797,15.802z M16.91,13.064
		c-0.467,0.41-1.087,0.618-1.84,0.618h-3.303V8.954h2.861c0.971,0,1.72,0.203,2.23,0.602c0.504,0.396,0.75,0.984,0.75,1.795
		C17.607,12.093,17.379,12.653,16.91,13.064z M17.471,20.366c-0.51,0.451-1.238,0.68-2.163,0.68h-3.541v-5.409h3.854
		c0.889,0,1.551,0.248,1.971,0.736c0.426,0.495,0.643,1.192,0.643,2.07C18.234,19.272,17.977,19.919,17.471,20.366z"/>
</g>
<g>
	<path fill="#9595A4" d="M49.797,15.802c-0.48-0.644-1.123-1.093-1.914-1.34c0.574-0.269,1.053-0.64,1.432-1.106
		c0.465-0.574,0.701-1.233,0.701-1.961c0-1.458-0.488-2.568-1.449-3.302C47.617,7.368,46.293,7,44.627,7h-5.268v16h5.948
		c1.624,0,2.931-0.394,3.884-1.17c0.963-0.784,1.449-1.931,1.449-3.407C50.641,17.432,50.357,16.55,49.797,15.802z M46.91,13.064
		c-0.467,0.41-1.088,0.618-1.84,0.618h-3.304V8.954h2.86c0.971,0,1.721,0.203,2.23,0.602c0.504,0.396,0.75,0.984,0.75,1.795
		C47.607,12.093,47.379,12.653,46.91,13.064z M47.471,20.366c-0.51,0.451-1.238,0.68-2.163,0.68h-3.541v-5.409h3.854
		c0.889,0,1.551,0.248,1.971,0.736c0.426,0.495,0.643,1.192,0.643,2.07C48.234,19.272,47.977,19.919,47.471,20.366z"/>
</g>
</svg>
