<?xml version="1.0" encoding="utf-8"?>
<!-- Generator: Adobe Illustrator 15.0.2, SVG Export Plug-In . SVG Version: 6.00 Build 0)  -->
<!DOCTYPE svg PUBLIC "-//W3C//DTD SVG 1.1//EN" "http://www.w3.org/Graphics/SVG/1.1/DTD/svg11.dtd">
<svg version="1.1" id="Calque_1" xmlns="http://www.w3.org/2000/svg" xmlns:xlink="http://www.w3.org/1999/xlink" x="0px" y="0px"
	 width="60px" height="30px" viewBox="0 0 60 30" enable-background="new 0 0 60 30" xml:space="preserve">
<g>
	<rect x="11.798" y="18.17" fill="#2D2D2D" width="0.001" height="1.585"/>
	<path fill="#2D2D2D" d="M16.6,7h-6.399c-0.879,0-1.6,0.72-1.6,1.6v12.799c0,0.88,0.72,1.601,1.6,1.601h9.6
		c0.88,0,1.599-0.72,1.599-1.601v-9.601L16.6,7z M18.176,19.755h-6.377h-0.001V18.17h0.001h6.377V19.755z M18.176,16.585h-6.378V15
		h6.378V16.585z M15.801,12.6V8.2l4.397,4.4H15.801z"/>
</g>
<g>
	<rect x="41.798" y="18.17" fill="#9595A4" width="0.001" height="1.585"/>
	<path fill="#9595A4" d="M46.6,7H40.2c-0.88,0-1.6,0.72-1.6,1.6v12.799c0,0.88,0.72,1.601,1.6,1.601h9.6
		c0.88,0,1.599-0.72,1.599-1.601v-9.601L46.6,7z M48.176,19.755h-6.377h-0.001V18.17h0.001h6.377V19.755z M48.176,16.585h-6.378V15
		h6.378V16.585z M45.801,12.6V8.2l4.397,4.4H45.801z"/>
</g>
</svg>
