<?xml version="1.0" encoding="utf-8"?>
<!-- Generator: Adobe Illustrator 15.0.2, SVG Export Plug-In . SVG Version: 6.00 Build 0)  -->
<!DOCTYPE svg PUBLIC "-//W3C//DTD SVG 1.1//EN" "http://www.w3.org/Graphics/SVG/1.1/DTD/svg11.dtd">
<svg version="1.1" id="Calque_1" xmlns="http://www.w3.org/2000/svg" xmlns:xlink="http://www.w3.org/1999/xlink" x="0px" y="0px"
	 width="60px" height="30px" viewBox="0 0 60 30" enable-background="new 0 0 60 30" xml:space="preserve">
<g>
	<rect x="13" y="7.83" fill="#2D2D2D" width="10" height="2"/>
	<rect x="13" y="14" fill="#2D2D2D" width="10" height="2"/>
	<rect x="13" y="20.17" fill="#2D2D2D" width="10" height="2"/>
	<g>
		<path fill="#2D2D2D" d="M9.875,10.83H9.112V7.952C8.833,8.213,8.504,8.406,8.125,8.531V7.838c0.199-0.065,0.416-0.189,0.649-0.371
			S9.169,7.073,9.256,6.83h0.62V10.83z"/>
	</g>
	<g>
		<path fill="#2D2D2D" d="M7.699,22.063l0.728-0.088c0.022,0.185,0.085,0.327,0.187,0.425s0.225,0.146,0.369,0.146
			c0.155,0,0.285-0.059,0.392-0.176c0.105-0.117,0.158-0.276,0.158-0.476c0-0.188-0.05-0.339-0.151-0.449s-0.226-0.165-0.372-0.165
			c-0.096,0-0.211,0.018-0.345,0.056l0.083-0.612c0.203,0.006,0.358-0.038,0.465-0.132c0.107-0.094,0.16-0.218,0.16-0.372
			c0-0.133-0.039-0.238-0.117-0.316s-0.183-0.117-0.313-0.117c-0.129,0-0.238,0.045-0.329,0.134s-0.146,0.219-0.165,0.39
			l-0.692-0.117c0.048-0.236,0.121-0.426,0.218-0.568c0.097-0.141,0.232-0.252,0.406-0.334c0.174-0.08,0.368-0.121,0.584-0.121
			c0.368,0,0.664,0.117,0.887,0.353c0.184,0.192,0.275,0.409,0.275,0.652c0,0.344-0.188,0.618-0.563,0.823
			c0.224,0.048,0.403,0.155,0.538,0.322c0.135,0.168,0.202,0.37,0.202,0.607c0,0.344-0.126,0.637-0.377,0.879
			S9.361,23.17,8.987,23.17c-0.354,0-0.648-0.102-0.882-0.307C7.872,22.66,7.737,22.393,7.699,22.063z"/>
	</g>
	<g>
		<path fill="#2D2D2D" d="M10.339,16.291V17H7.662c0.029-0.268,0.116-0.521,0.261-0.762c0.145-0.24,0.431-0.559,0.859-0.956
			c0.344-0.321,0.555-0.538,0.633-0.652c0.105-0.158,0.157-0.313,0.157-0.467c0-0.17-0.045-0.301-0.137-0.393
			c-0.091-0.092-0.218-0.137-0.379-0.137c-0.159,0-0.286,0.048-0.38,0.144c-0.094,0.096-0.148,0.255-0.163,0.478l-0.761-0.076
			c0.045-0.42,0.188-0.722,0.427-0.905C8.417,13.091,8.716,13,9.075,13c0.393,0,0.702,0.106,0.927,0.318s0.337,0.476,0.337,0.791
			c0,0.179-0.032,0.35-0.097,0.512c-0.064,0.162-0.166,0.332-0.306,0.509c-0.092,0.118-0.259,0.287-0.5,0.508
			c-0.241,0.221-0.394,0.367-0.458,0.439c-0.064,0.073-0.116,0.144-0.156,0.213H10.339z"/>
	</g>
</g>
<g>
	<rect x="43" y="7.83" fill="#9595A4" width="9.999" height="2"/>
	<rect x="43" y="14" fill="#9595A4" width="9.999" height="2"/>
	<rect x="43" y="20.17" fill="#9595A4" width="9.999" height="2"/>
	<g>
		<path fill="#9595A4" d="M39.875,10.83h-0.764V7.952c-0.279,0.261-0.608,0.454-0.986,0.579V7.838
			c0.199-0.065,0.415-0.189,0.648-0.371c0.234-0.182,0.395-0.395,0.481-0.637h0.62V10.83z"/>
	</g>
	<g>
		<path fill="#9595A4" d="M37.697,22.063l0.729-0.088c0.021,0.185,0.084,0.327,0.186,0.425s0.225,0.146,0.369,0.146
			c0.156,0,0.285-0.059,0.393-0.176c0.105-0.117,0.158-0.276,0.158-0.476c0-0.188-0.051-0.339-0.152-0.449s-0.225-0.165-0.371-0.165
			c-0.096,0-0.211,0.018-0.346,0.056l0.084-0.612c0.203,0.006,0.357-0.038,0.465-0.132s0.16-0.218,0.16-0.372
			c0-0.133-0.039-0.238-0.117-0.316s-0.184-0.117-0.313-0.117s-0.238,0.045-0.33,0.134c-0.09,0.089-0.145,0.219-0.164,0.39
			l-0.693-0.117c0.049-0.236,0.121-0.426,0.219-0.568c0.096-0.141,0.232-0.252,0.406-0.334c0.174-0.08,0.367-0.121,0.584-0.121
			c0.367,0,0.664,0.117,0.887,0.353c0.184,0.192,0.275,0.409,0.275,0.652c0,0.344-0.189,0.618-0.564,0.823
			c0.225,0.048,0.404,0.155,0.539,0.322c0.135,0.168,0.201,0.37,0.201,0.607c0,0.344-0.125,0.637-0.377,0.879
			c-0.25,0.242-0.564,0.363-0.938,0.363c-0.355,0-0.648-0.102-0.883-0.307C37.871,22.66,37.736,22.393,37.697,22.063z"/>
	</g>
	<g>
		<path fill="#9595A4" d="M40.338,16.291V17h-2.677c0.028-0.268,0.116-0.521,0.261-0.762s0.432-0.559,0.859-0.956
			c0.344-0.321,0.555-0.538,0.633-0.652c0.105-0.158,0.157-0.313,0.157-0.467c0-0.17-0.046-0.301-0.138-0.393
			c-0.091-0.092-0.217-0.137-0.379-0.137c-0.158,0-0.285,0.048-0.38,0.144c-0.095,0.096-0.148,0.255-0.163,0.478l-0.761-0.076
			c0.046-0.42,0.188-0.722,0.427-0.905C38.416,13.091,38.715,13,39.074,13c0.393,0,0.702,0.106,0.927,0.318s0.337,0.476,0.337,0.791
			c0,0.179-0.032,0.35-0.097,0.512c-0.063,0.162-0.166,0.332-0.306,0.509c-0.092,0.118-0.259,0.287-0.5,0.508
			c-0.24,0.221-0.394,0.367-0.458,0.439c-0.063,0.073-0.116,0.144-0.156,0.213H40.338z"/>
	</g>
</g>
</svg>
