<?xml version="1.0" encoding="utf-8"?>
<!-- Generator: Adobe Illustrator 15.0.2, SVG Export Plug-In . SVG Version: 6.00 Build 0)  -->
<!DOCTYPE svg PUBLIC "-//W3C//DTD SVG 1.1//EN" "http://www.w3.org/Graphics/SVG/1.1/DTD/svg11.dtd">
<svg version="1.1" id="Calque_1" xmlns="http://www.w3.org/2000/svg" xmlns:xlink="http://www.w3.org/1999/xlink" x="0px" y="0px"
	 width="60px" height="30px" viewBox="0 0 60 30" enable-background="new 0 0 60 30" xml:space="preserve">
<g>
	<g>
		<path fill="#2D2D2D" d="M15.243,7l0.534,0.697C14.509,12.034,12.35,17.136,9.298,23H6.223C7.915,16.748,9.15,11.414,9.93,7H15.243
			L15.243,7z"/>
	</g>
</g>
<g>
	<g>
		<path fill="#2D2D2D" d="M23.243,7l0.534,0.697C22.509,12.034,20.35,17.136,17.299,23h-3.076c1.692-6.252,2.928-11.586,3.707-16
			H23.243L23.243,7z"/>
	</g>
</g>
<g>
	<g>
		<path fill="#9595A4" d="M45.243,7l0.534,0.697C44.509,12.034,42.35,17.136,39.299,23h-3.076c1.692-6.252,2.928-11.586,3.707-16
			H45.243L45.243,7z"/>
	</g>
</g>
<g>
	<g>
		<path fill="#9595A4" d="M53.243,7l0.534,0.697C52.509,12.034,50.35,17.136,47.299,23h-3.076c1.692-6.252,2.928-11.586,3.707-16
			H53.243L53.243,7z"/>
	</g>
</g>
</svg>
