<?xml version="1.0" encoding="utf-8"?>
<!-- Generator: Adobe Illustrator 15.0.2, SVG Export Plug-In . SVG Version: 6.00 Build 0)  -->
<!DOCTYPE svg PUBLIC "-//W3C//DTD SVG 1.1//EN" "http://www.w3.org/Graphics/SVG/1.1/DTD/svg11.dtd">
<svg version="1.1" id="Calque_1" xmlns="http://www.w3.org/2000/svg" xmlns:xlink="http://www.w3.org/1999/xlink" x="0px" y="0px"
	 width="20px" height="20px" viewBox="0 0 20 20" enable-background="new 0 0 20 20" xml:space="preserve">
<g>
	<path fill="#F4F4F4" d="M12.353,9.529c1.601,0,2.824-1.225,2.824-2.824s-1.226-2.823-2.824-2.823c-0.282,0-0.563,0.095-0.848,0.095
		c0.563,0.847,0.848,1.693,0.848,2.729c0,1.036-0.282,1.883-0.848,2.73C11.788,9.435,12.069,9.529,12.353,9.529z"/>
	<path fill="#F4F4F4" d="M7.648,9.529c1.599,0,2.823-1.225,2.823-2.824S9.247,3.881,7.648,3.881c-1.601,0-2.823,1.224-2.823,2.823
		C4.823,8.306,6.045,9.529,7.648,9.529z"/>
	<path fill="#F4F4F4" d="M13.859,11.602c0.753,0.658,1.318,1.598,1.318,2.635v1.883h2.821v-1.883
		C17.999,12.824,15.741,11.883,13.859,11.602z"/>
	<path fill="#F4F4F4" d="M7.648,11.412C5.765,11.412,2,12.352,2,14.236v1.881h11.293v-1.881C13.293,12.354,9.53,11.412,7.648,11.412
		z"/>
</g>
</svg>
