<?xml version="1.0" encoding="utf-8"?>
<!-- Generator: Adobe Illustrator 15.0.2, SVG Export Plug-In . SVG Version: 6.00 Build 0)  -->
<!DOCTYPE svg PUBLIC "-//W3C//DTD SVG 1.1//EN" "http://www.w3.org/Graphics/SVG/1.1/DTD/svg11.dtd">
<svg version="1.1" id="Calque_1" xmlns="http://www.w3.org/2000/svg" xmlns:xlink="http://www.w3.org/1999/xlink" x="0px" y="0px"
	 width="20px" height="20px" viewBox="0 0 20 20" enable-background="new 0 0 20 20" xml:space="preserve">
<g id="account-circle">
	<path fill="#F4F4F4" d="M10,2C5.6,2,2,5.6,2,10s3.601,8,8,8c4.4,0,8-3.6,8-8S14.401,2,10,2z M10,4.4c1.359,0,2.4,1.039,2.4,2.398
		c0,1.36-1.041,2.399-2.4,2.399c-1.358,0-2.398-1.039-2.398-2.399C7.601,5.439,8.641,4.4,10,4.4z M10,15.76
		c-2,0-3.758-1.041-4.799-2.56c0-1.601,3.2-2.479,4.799-2.479c1.6,0,4.802,0.879,4.802,2.479C13.76,14.719,12,15.76,10,15.76z"/>
</g>
</svg>
