<?xml version="1.0" encoding="utf-8"?>
<!-- Generator: Adobe Illustrator 15.0.2, SVG Export Plug-In . SVG Version: 6.00 Build 0)  -->
<!DOCTYPE svg PUBLIC "-//W3C//DTD SVG 1.1//EN" "http://www.w3.org/Graphics/SVG/1.1/DTD/svg11.dtd">
<svg version="1.1" id="Calque_1" xmlns="http://www.w3.org/2000/svg" xmlns:xlink="http://www.w3.org/1999/xlink" x="0px" y="0px"
	 width="50px" height="50px" viewBox="230.373 232.54 50 50" enable-background="new 230.373 232.54 50 50" xml:space="preserve">
<g>
	<path fill="#00CC00" d="M267.983,243.142h-7.564c-0.722-2.162-2.702-3.602-5.045-3.602c-2.342,0-4.322,1.44-5.043,3.602h-7.564
		c-1.981,0-3.603,1.621-3.603,3.603v25.191c0,1.983,1.621,3.604,3.603,3.604h25.217c1.979,0,3.601-1.621,3.601-3.604v-25.191
		C271.583,244.763,269.962,243.142,267.983,243.142z M255.373,243.142c1.081,0,1.803,0.721,1.803,1.801s-0.722,1.801-1.803,1.801
		c-1.08,0-1.801-0.721-1.801-1.801S254.293,243.142,255.373,243.142z M258.957,268.26H246.38v-3.606h12.577V268.26z
		 M264.353,261.094H246.38v-3.606h17.973V261.094z M264.353,253.927H246.38v-3.606h17.973V253.927z"/>
</g>
</svg>
