<?xml version="1.0" encoding="utf-8"?>
<!-- Generator: Adobe Illustrator 15.0.2, SVG Export Plug-In . SVG Version: 6.00 Build 0)  -->
<!DOCTYPE svg PUBLIC "-//W3C//DTD SVG 1.1//EN" "http://www.w3.org/Graphics/SVG/1.1/DTD/svg11.dtd">
<svg version="1.1" id="Calque_1" xmlns="http://www.w3.org/2000/svg" xmlns:xlink="http://www.w3.org/1999/xlink" x="0px" y="0px"
	 width="50px" height="50px" viewBox="0 0 50 50" enable-background="new 0 0 50 50" xml:space="preserve">
<path fill="#00CC00" d="M37.75,10.642h-1.822V7h-3.642v3.642H17.715V7h-3.642v3.642h-1.821c-2.003,0-3.642,1.639-3.642,3.642v25.075
	c0,2.002,1.639,3.641,3.642,3.641H37.75c2.002,0,3.641-1.639,3.641-3.641V14.284C41.391,12.281,39.752,10.642,37.75,10.642z
	 M24.943,15.997c2.979,0,5.417,2.437,5.417,5.415c0,2.979-2.438,5.415-5.417,5.415s-5.416-2.437-5.416-5.415
	C19.528,18.433,21.965,15.997,24.943,15.997z M35.771,37.654H14.113v-2.479c0-3.351,7.175-4.965,10.83-4.965
	s10.829,1.614,10.829,4.965V37.654L35.771,37.654z"/>
</svg>
