<?xml version="1.0" encoding="utf-8"?>
<!-- Generator: Adobe Illustrator 15.0.2, SVG Export Plug-In . SVG Version: 6.00 Build 0)  -->
<!DOCTYPE svg PUBLIC "-//W3C//DTD SVG 1.1//EN" "http://www.w3.org/Graphics/SVG/1.1/DTD/svg11.dtd">
<svg version="1.1" id="Calque_1" xmlns="http://www.w3.org/2000/svg" xmlns:xlink="http://www.w3.org/1999/xlink" x="0px" y="0px"
	 width="50px" height="50px" viewBox="0 0 50 50" enable-background="new 0 0 50 50" xml:space="preserve">
<g id="news">
	<path fill="#00CC00" d="M41.18,10.399L38.064,7l-3.318,3.402L31.435,7l-3.313,3.402L25,7l-3.315,3.402L18.563,7l-3.315,3.402
		L11.934,7l-3.12,3.402L5.5,7v32.001C5.5,41.198,7.253,43,9.398,43h31.197c2.146,0,3.904-1.802,3.904-3.999V7L41.18,10.399z
		 M25,39.001H9.398V25h15.599v14.001H25z M40.596,39.001H26.949V37h13.646V39.001L40.596,39.001z M40.596,34.999H26.949V33h13.646
		V34.999L40.596,34.999z M40.596,30.998H26.949v-2h13.646V30.998L40.596,30.998z M40.596,27.001H26.949V25h13.646V27.001
		L40.596,27.001z M40.596,22.999H9.398v-6h31.197V22.999L40.596,22.999z"/>
</g>
</svg>
