<?xml version="1.0" encoding="utf-8"?>
<!-- Generator: Adobe Illustrator 15.0.2, SVG Export Plug-In . SVG Version: 6.00 Build 0)  -->
<!DOCTYPE svg PUBLIC "-//W3C//DTD SVG 1.1//EN" "http://www.w3.org/Graphics/SVG/1.1/DTD/svg11.dtd">
<svg version="1.1" id="Calque_1" xmlns="http://www.w3.org/2000/svg" xmlns:xlink="http://www.w3.org/1999/xlink" x="0px" y="0px"
	 width="16px" height="16px" viewBox="0 0 16 16" enable-background="new 0 0 16 16" xml:space="preserve">
<g>
	<path fill="#999999" d="M8.661,9.675c0.083,0.278,0.128,0.563,0.136,0.854c0.008,0.292-0.023,0.574-0.087,0.854
		c-0.065,0.279-0.171,0.547-0.311,0.806c-0.142,0.257-0.32,0.493-0.534,0.708l-2.182,2.182c-0.316,0.316-0.675,0.552-1.074,0.705
		c-0.4,0.152-0.811,0.225-1.233,0.216c-0.424-0.009-0.84-0.099-1.249-0.266c-0.409-0.167-0.781-0.418-1.116-0.753
		c-0.33-0.331-0.579-0.699-0.746-1.108c-0.168-0.41-0.256-0.825-0.265-1.248c-0.011-0.423,0.062-0.835,0.215-1.234
		c0.154-0.397,0.389-0.757,0.705-1.073l2.183-2.183C3.54,7.697,4.042,7.412,4.613,7.28c0.57-0.132,1.14-0.112,1.711,0.06
		l-4.19,4.189c-0.154,0.153-0.265,0.328-0.334,0.524c-0.069,0.195-0.104,0.396-0.101,0.603c0.002,0.207,0.046,0.411,0.129,0.609
		c0.083,0.2,0.205,0.38,0.363,0.538c0.162,0.161,0.344,0.285,0.543,0.368c0.2,0.085,0.404,0.129,0.614,0.134
		c0.21,0.005,0.411-0.029,0.603-0.102c0.193-0.07,0.366-0.185,0.52-0.338L8.661,9.675L8.661,9.675L8.661,9.675z M10.305,0.932
		c0.317-0.317,0.677-0.553,1.078-0.708c0.403-0.156,0.816-0.23,1.242-0.223c0.425,0.007,0.843,0.094,1.251,0.261
		c0.41,0.167,0.778,0.417,1.109,0.747c0.335,0.335,0.585,0.707,0.753,1.115C15.905,2.532,15.992,2.949,16,3.375
		c0.008,0.425-0.07,0.839-0.225,1.241c-0.156,0.403-0.393,0.762-0.706,1.078l-2.177,2.176c-0.213,0.213-0.448,0.392-0.709,0.533
		c-0.256,0.141-0.525,0.247-0.807,0.314s-0.568,0.098-0.857,0.091C10.227,8.8,9.944,8.754,9.664,8.67l4.19-4.19
		c0.153-0.154,0.267-0.327,0.339-0.519c0.072-0.193,0.106-0.395,0.101-0.604c-0.005-0.209-0.049-0.413-0.131-0.613
		c-0.085-0.201-0.208-0.381-0.371-0.545c-0.159-0.156-0.336-0.277-0.535-0.36c-0.202-0.084-0.405-0.126-0.611-0.129
		c-0.207-0.002-0.407,0.031-0.604,0.101c-0.194,0.07-0.368,0.181-0.521,0.334l-4.191,4.19C7.156,5.763,7.139,5.19,7.276,4.616
		c0.137-0.573,0.421-1.077,0.854-1.51L10.305,0.932L10.305,0.932L10.305,0.932z"/>
	<path fill="#4785BA" d="M4.202,11.793c-0.099-0.099-0.172-0.208-0.224-0.333c-0.05-0.127-0.076-0.255-0.076-0.385
		c0-0.131,0.023-0.256,0.07-0.378c0.045-0.119,0.119-0.229,0.216-0.327l6.177-6.177c0.199-0.2,0.437-0.297,0.71-0.293
		c0.275,0.005,0.513,0.107,0.713,0.307c0.209,0.209,0.313,0.447,0.31,0.715c-0.003,0.268-0.103,0.501-0.304,0.701l-6.176,6.179
		c-0.195,0.194-0.429,0.294-0.697,0.3C4.65,12.104,4.411,12.003,4.202,11.793z"/>
</g>
</svg>
