<?xml version="1.0" encoding="utf-8"?>
<!-- Generator: Adobe Illustrator 15.0.2, SVG Export Plug-In . SVG Version: 6.00 Build 0)  -->
<!DOCTYPE svg PUBLIC "-//W3C//DTD SVG 1.1//EN" "http://www.w3.org/Graphics/SVG/1.1/DTD/svg11.dtd">
<svg version="1.1" id="Calque_1" xmlns="http://www.w3.org/2000/svg" xmlns:xlink="http://www.w3.org/1999/xlink" x="0px" y="0px"
	 width="15px" height="15px" viewBox="0 0 15 15" enable-background="new 0 0 15 15" xml:space="preserve">
<g>
	<g>
		<path fill="#F1BE41" d="M7.501,0.001c-4.142,0-7.5,3.358-7.5,7.5c0,4.142,3.358,7.5,7.5,7.5s7.5-3.358,7.5-7.5
			C15.001,3.36,11.643,0.001,7.501,0.001z"/>
	</g>
</g>
<g>
	<path fill="#FFFFFF" d="M7.509,13.158c-0.414,0-0.756-0.126-1.025-0.377c-0.27-0.251-0.404-0.555-0.404-0.912
		c0-0.373,0.136-0.678,0.408-0.916c0.271-0.238,0.612-0.357,1.021-0.357c0.414,0,0.753,0.12,1.018,0.361
		c0.264,0.24,0.396,0.545,0.396,0.912c0,0.373-0.131,0.681-0.392,0.924C8.269,13.036,7.928,13.158,7.509,13.158z M8.782,1.845
		L8.479,9.517H6.492L6.204,1.845H8.782z"/>
</g>
</svg>
